<svg width="91" height="90" viewBox="0 0 91 90" fill="none" xmlns="http://www.w3.org/2000/svg">
<rect x="0.973145" width="90" height="90" rx="8" fill="#50CA88"/>
<path d="M72.494 13V30.9667L37.4193 30.9669V38.0206C28.3769 41.7645 22.8171 47.7938 19.4526 54.814V13H72.494Z" fill="#112933"/>
<path d="M19.4526 77H37.4193C37.4193 62.3298 47.6774 56.687 56.2082 55.6994V39.8075C23.7042 41.5569 20.516 64.6025 19.4526 77Z" fill="#112933"/>
<path d="M72.4937 67.8974C72.4937 72.9246 68.4184 77 63.3912 77C58.3639 77 54.2886 72.9246 54.2886 67.8974C54.2886 62.8702 58.3639 58.7948 63.3912 58.7948C68.4184 58.7948 72.4937 62.8702 72.4937 67.8974Z" fill="#112933"/>
</svg>
