<svg width="33" height="32" viewBox="0 0 33 32" fill="none" xmlns="http://www.w3.org/2000/svg">
<rect x="0.5" width="32" height="32" rx="8" fill="#50CA88"/>
<path d="M23.13 8V12.4917L14.3613 12.4917V14.2552C12.1007 15.1911 10.7107 16.6984 9.86963 18.4535V8H23.13Z" fill="#112933"/>
<path d="M9.86963 24H14.3613C14.3613 20.3324 16.9258 18.9218 19.0585 18.6748V14.7019C10.9325 15.1392 10.1355 20.9006 9.86963 24Z" fill="#112933"/>
<path d="M23.1299 21.7244C23.1299 22.9812 22.1111 24 20.8543 24C19.5975 24 18.5786 22.9812 18.5786 21.7244C18.5786 20.4676 19.5975 19.4487 20.8543 19.4487C22.1111 19.4487 23.1299 20.4676 23.1299 21.7244Z" fill="#112933"/>
</svg>
